<svg data-v-423bf9ae="" xmlns="http://www.w3.org/2000/svg" viewBox="0 0 371 90" class="iconLeftSlogan"><!----><!----><!----><g data-v-423bf9ae="" id="7695c64d-145b-4389-9d30-10b4a7dbee8f" fill="white" transform="matrix(5.842259288922937,0,0,5.842259288922937,90.36416531157008,-34.81986510800806)"><path d="M0.28 12.68C0.92 13.05 1.97 13.37 3.07 13.37C4.77 13.37 5.89 12.49 5.89 11.09C5.89 9.90 5.10 9.21 4.03 8.83L3.16 8.53C2.79 8.39 2.63 8.23 2.63 7.99C2.63 7.74 2.83 7.55 3.21 7.55C3.88 7.55 4.58 7.81 5.17 8.08C5.52 7.81 5.80 7.07 5.77 6.55C5.15 6.24 4.03 5.96 3.19 5.96C1.54 5.96 0.48 6.86 0.48 8.27C0.48 9.41 1.25 10.01 2.23 10.37L3.00 10.67C3.46 10.82 3.64 11.03 3.64 11.30C3.64 11.58 3.36 11.79 2.83 11.79C2.27 11.79 1.50 11.52 0.88 11.20C0.56 11.54 0.29 12.21 0.28 12.68ZM12.98 12.15C12.70 11.96 12.59 11.65 12.59 11.24L12.59 8.40C12.59 6.62 11.31 6.01 10.09 6.01C9.18 6.01 7.83 6.24 6.89 6.62C6.94 7.17 7.11 7.78 7.42 8.15C8.15 7.92 8.88 7.70 9.48 7.70C10.11 7.70 10.39 7.99 10.39 8.58L10.39 8.85C10.02 8.82 9.65 8.82 9.39 8.82C7.95 8.82 6.62 9.56 6.62 11.24C6.62 12.25 7.31 13.37 8.75 13.37C9.66 13.37 10.30 12.99 10.79 12.53C11.10 12.94 11.59 13.26 12.31 13.27C12.59 13.06 12.89 12.53 12.98 12.15ZM9.39 11.76C9.00 11.76 8.75 11.48 8.75 11.10C8.75 10.57 9.00 10.21 9.63 10.21C9.83 10.21 10.11 10.22 10.39 10.23L10.39 11.35C10.07 11.62 9.72 11.76 9.39 11.76ZM16.67 11.49C16.59 11.49 16.55 11.49 16.53 11.38C16.46 10.96 16.37 10.22 16.23 9.69L15.60 7.07C15.41 6.31 15.02 6.05 14.34 6.05C13.97 6.05 13.51 6.17 13.12 6.34L14.80 12.19C15.05 13.06 15.48 13.24 16.31 13.24C16.87 13.24 17.47 13.22 17.95 13.16C18.47 11.55 19.33 8.40 19.89 6.37L19.82 6.27C19.49 6.15 19.07 6.10 18.69 6.10C18.42 6.10 18.16 6.13 17.89 6.19ZM26.01 10.37C26.15 9.91 26.19 9.55 26.19 8.93C26.19 7.24 25.13 5.96 23.28 5.96C21.06 5.96 20.15 7.60 20.15 9.72C20.15 11.56 20.80 13.37 23.27 13.37C24.25 13.37 25.31 13.08 26.01 12.57C25.96 12.14 25.76 11.61 25.44 11.28C24.86 11.51 24.25 11.70 23.62 11.70C22.69 11.70 22.43 11.13 22.36 10.37ZM23.27 7.52C23.93 7.52 24.19 8.06 24.19 8.71L24.19 8.86L22.34 8.86C22.40 7.95 22.65 7.52 23.27 7.52ZM33.46 6.40L33.38 6.24C32.98 6.12 32.58 6.09 32.21 6.09C31.93 6.09 31.58 6.12 31.35 6.19L30.13 11.62C30.06 11.62 30.03 11.61 30.02 11.52C29.95 11.06 29.82 10.15 29.69 9.67L29.05 6.99C28.87 6.26 28.52 6.05 27.99 6.05C27.62 6.05 27.08 6.15 26.64 6.34L28.27 12.38C28.45 13.03 28.97 13.26 29.72 13.26L29.67 13.45C29.46 14.17 28.99 14.59 28.29 14.59C27.83 14.59 27.33 14.48 27.03 14.38C26.74 14.71 26.54 15.44 26.60 15.95C26.98 16.07 27.73 16.23 28.29 16.23C30.48 16.23 31.23 14.88 31.74 12.98ZM40.25 9.66C40.25 8.44 39.98 7.53 39.24 6.79C38.65 6.22 37.88 5.96 37.02 5.96C36.13 5.96 35.36 6.22 34.79 6.79C34.05 7.53 33.78 8.44 33.78 9.66C33.78 10.89 34.05 11.80 34.79 12.54C35.36 13.12 36.13 13.37 37.02 13.37C37.88 13.37 38.65 13.12 39.24 12.54C39.98 11.80 40.25 10.89 40.25 9.66ZM36.02 9.66C36.02 8.51 36.15 7.60 37.02 7.60C37.87 7.60 38.00 8.51 38.00 9.66C38.00 10.82 37.87 11.73 37.02 11.73C36.15 11.73 36.02 10.82 36.02 9.66ZM41.47 10.79C41.47 12.25 42.15 13.29 43.43 13.29C44.28 13.29 44.97 12.82 45.56 12.29C45.86 12.87 46.42 13.24 47.21 13.27C47.49 13.06 47.80 12.56 47.88 12.18C47.64 12.01 47.49 11.61 47.49 11.16L47.49 6.17C47.17 6.12 46.76 6.09 46.40 6.09C46.02 6.09 45.61 6.12 45.30 6.17L45.30 10.85C44.94 11.20 44.53 11.33 44.27 11.33C43.79 11.33 43.67 11.03 43.67 10.39L43.67 7.42C43.67 6.54 43.37 6.06 42.49 6.06C41.94 6.06 41.44 6.26 41.13 6.52C41.38 6.89 41.47 7.38 41.47 7.92Z"></path></g><!----><g data-v-423bf9ae="" id="b03f606a-bb8f-44ca-936d-d35cb9268032" transform="matrix(1.5,0,0,1.5,-12,-3)" stroke="none" fill="white"><path d="M41.9 15c-.6-.2-1.2-.3-1.8-.3-1.9 0-3.6 1.1-4.3 2.7-.4 1-.4 2.1 0 3.1.5 1.1 1.4 1.9 2.6 2.4.6.2 1.2.3 1.8.3 1.9 0 3.6-1.1 4.3-2.7.4-1 .4-2.1 0-3.1-.5-1.2-1.4-2-2.6-2.4z"></path><path d="M47.5 2L24 13.3 8 50l32 12 16-36.8L47.5 2zM39 56.1c-.2.4-.6.7-1 .7-.1 0-.3 0-.4-.1L13 47.5c-.6-.2-.9-.8-.6-1.4s.9-.8 1.4-.6l24.6 9.2c.5.2.8.8.6 1.4zM17.8 41.8c.2-.6.9-.8 1.4-.6l18.6 6.9c.6.2.9.8.6 1.4-.2.4-.6.7-1 .7-.1 0-.3 0-.4-.1l-18.6-6.9c-.6-.2-.9-.9-.6-1.4zm26 3.4c-.2.4-.6.7-1 .7-.1 0-.3 0-.4-.1l-24.6-9.2c-.6-.2-.9-.8-.6-1.4.2-.6.9-.8 1.4-.6l24.6 9.2c.5.2.8.8.6 1.4zm2.7-23.9c-1.1 2.4-3.5 4-6.3 4-.9 0-1.7-.2-2.5-.5-1.8-.7-3.1-1.9-3.8-3.6-.7-1.6-.7-3.3 0-4.8 1.1-2.4 3.5-4 6.3-4 .9 0 1.7.2 2.5.5 1.8.7 3.1 1.9 3.8 3.6.7 1.5.7 3.2 0 4.8z"></path></g><!----><g data-v-423bf9ae="" id="2997f847-83b9-497e-a106-415acc7641a9" fill="white" transform="matrix(0.9679061932218889,0,0,0.9679061932218889,91.29342858417242,57.193073311588755)"><path d="M0.73 5.77C0.73 9.07 5.71 8.20 5.71 10.65C5.71 11.59 4.87 12.31 3.89 12.31C3.07 12.31 1.47 11.83 1.44 11.47L1.36 10.15C1.34 9.97 1.27 9.91 1.09 9.91L1.02 9.91C0.81 9.91 0.81 10.00 0.81 10.12C0.81 10.32 0.92 11.66 0.95 12.17C0.97 12.38 2.23 12.85 3.77 12.85C5.33 12.85 6.94 11.87 6.94 10.11C6.94 6.79 1.97 7.87 1.97 5.32C1.97 4.31 2.76 3.56 3.79 3.56C4.82 3.56 5.91 4.58 5.91 4.89C5.91 5.01 5.87 5.73 5.87 5.78C5.87 5.92 5.91 5.99 6.17 5.99C6.41 5.99 6.43 5.94 6.43 5.75C6.43 5.04 6.51 3.68 6.51 3.53C6.51 3.30 6.47 3.29 6.20 3.29C5.98 3.29 5.96 3.32 5.95 3.53C5.95 3.61 5.94 3.78 5.89 3.78C5.84 3.78 5.75 3.74 5.68 3.68C4.89 3.14 4.27 3.08 3.77 3.08C2.24 3.08 0.73 4.17 0.73 5.77ZM14.91 12.39C14.91 12.63 14.94 12.68 15.13 12.68C15.46 12.68 16.42 12.64 16.84 12.64C17.26 12.64 21.77 12.68 22.09 12.68C22.22 12.68 22.37 12.66 22.37 12.49C22.37 12.07 22.41 11.23 22.41 10.53C22.41 10.39 22.26 10.39 22.13 10.39C22.02 10.39 21.90 10.39 21.90 10.51C21.88 11.06 21.88 11.41 21.85 11.76C21.83 12.01 21.83 12.04 21.73 12.04C21.57 12.04 18.94 12.08 17.44 12.08C17.37 12.08 17.33 10.11 17.29 8.26C17.29 8.06 17.33 8.09 17.47 8.09L19.75 8.09C20.45 8.09 20.48 8.20 20.48 8.30L20.48 9.00C20.48 9.14 20.66 9.14 20.78 9.14C20.87 9.14 21 9.13 21 9.02C21 8.83 20.97 8.33 20.97 7.83C20.97 7.32 21 6.83 21 6.71C21 6.59 20.86 6.58 20.76 6.58C20.65 6.58 20.48 6.59 20.48 6.72L20.48 7.45C20.48 7.62 20.03 7.63 19.75 7.63L17.42 7.63C17.30 7.63 17.29 7.63 17.29 7.45C17.28 6.75 17.26 6.06 17.26 5.46C17.26 5.12 17.26 3.71 17.35 3.71C18.58 3.71 21.08 3.75 21.08 3.81C21.08 3.99 21.04 4.83 21.04 4.89C21.04 5.04 21.11 5.10 21.29 5.10C21.49 5.10 21.56 5.08 21.56 4.94C21.56 3.85 21.62 3.36 21.62 3.09C21.62 2.91 21.53 2.90 21.34 2.90C21.14 2.90 21.14 2.95 21.11 3.11C21.10 3.25 21.17 3.25 20.26 3.25C19.64 3.25 17.50 3.29 16.73 3.29C16.24 3.29 15.30 3.25 15.20 3.25C15.08 3.25 15.02 3.30 15.02 3.49C15.02 3.72 15.09 3.74 15.26 3.74L15.92 3.74C15.97 3.74 16.04 4.79 16.04 5.71C16.04 5.80 16.10 8.27 16.10 9.83L16.10 11.17C16.10 11.84 16.07 12.18 16.04 12.18L15.19 12.18C14.97 12.18 14.91 12.21 14.91 12.39ZM30.38 12.39C30.38 12.63 30.41 12.68 30.60 12.68C30.93 12.68 31.89 12.64 32.31 12.64C32.73 12.64 37.09 12.68 37.41 12.68C37.67 12.68 37.74 12.66 37.76 12.49C37.81 12.08 38.05 10.72 38.05 10.60C38.05 10.47 37.90 10.44 37.73 10.43C37.63 10.42 37.55 10.46 37.53 10.56L37.37 11.76C37.32 12.05 37.31 12.03 37.09 12.04C36.93 12.05 34.43 12.12 33.00 12.12C32.96 12.12 32.91 11.38 32.91 10.54L32.91 6.66C32.91 5.40 32.93 3.70 33.03 3.70L34.01 3.70C34.24 3.70 34.27 3.63 34.27 3.44C34.27 3.23 34.26 3.19 34.02 3.19C33.70 3.19 32.76 3.23 32.34 3.23C31.92 3.23 30.98 3.19 30.76 3.19C30.53 3.19 30.48 3.22 30.48 3.44C30.48 3.65 30.52 3.70 30.72 3.70L31.54 3.70C31.58 3.70 31.61 4.23 31.61 4.90L31.61 8.13C31.61 10.07 31.58 12.18 31.50 12.18L30.66 12.18C30.44 12.18 30.38 12.21 30.38 12.39ZM45.67 12.39C45.67 12.63 45.70 12.68 45.89 12.68C46.21 12.68 47.18 12.64 47.60 12.64C48.02 12.64 52.37 12.68 52.70 12.68C52.96 12.68 53.03 12.66 53.05 12.49C53.10 12.08 53.34 10.72 53.34 10.60C53.34 10.47 53.19 10.44 53.02 10.43C52.92 10.42 52.84 10.46 52.82 10.56L52.65 11.76C52.61 12.05 52.60 12.03 52.37 12.04C52.22 12.05 49.71 12.12 48.29 12.12C48.24 12.12 48.20 11.38 48.20 10.54L48.20 6.66C48.20 5.40 48.22 3.70 48.31 3.70L49.29 3.70C49.53 3.70 49.56 3.63 49.56 3.44C49.56 3.23 49.55 3.19 49.31 3.19C48.99 3.19 48.05 3.23 47.63 3.23C47.21 3.23 46.27 3.19 46.05 3.19C45.82 3.19 45.77 3.22 45.77 3.44C45.77 3.65 45.81 3.70 46.00 3.70L46.83 3.70C46.87 3.70 46.90 4.23 46.90 4.90L46.90 8.13C46.90 10.07 46.87 12.18 46.79 12.18L45.95 12.18C45.72 12.18 45.67 12.21 45.67 12.39ZM60.96 14.55C60.96 14.64 61.03 14.83 61.15 14.83C61.32 14.83 62.76 13.45 62.76 12.25C62.76 11.86 61.98 11.33 61.73 11.33C61.63 11.33 61.01 11.66 61.01 11.93C61.01 12.21 61.94 12.45 61.94 13.08C61.94 13.78 60.96 14.42 60.96 14.55ZM80.81 5.77C80.81 9.07 85.79 8.20 85.79 10.65C85.79 11.59 84.95 12.31 83.97 12.31C83.15 12.31 81.55 11.83 81.52 11.47L81.44 10.15C81.42 9.97 81.35 9.91 81.17 9.91L81.10 9.91C80.89 9.91 80.89 10.00 80.89 10.12C80.89 10.32 81.00 11.66 81.03 12.17C81.05 12.38 82.31 12.85 83.85 12.85C85.41 12.85 87.02 11.87 87.02 10.11C87.02 6.79 82.05 7.87 82.05 5.32C82.05 4.31 82.84 3.56 83.87 3.56C84.90 3.56 85.99 4.58 85.99 4.89C85.99 5.01 85.95 5.73 85.95 5.78C85.95 5.92 85.99 5.99 86.25 5.99C86.49 5.99 86.51 5.94 86.51 5.75C86.51 5.04 86.59 3.68 86.59 3.53C86.59 3.30 86.55 3.29 86.28 3.29C86.06 3.29 86.04 3.32 86.03 3.53C86.03 3.61 86.02 3.78 85.97 3.78C85.92 3.78 85.83 3.74 85.76 3.68C84.97 3.14 84.35 3.08 83.85 3.08C82.32 3.08 80.81 4.17 80.81 5.77ZM94.85 12.39C94.85 12.63 94.85 12.68 95.05 12.68C95.21 12.68 95.54 12.64 96.11 12.64C96.73 12.64 97.27 12.68 97.43 12.68C97.59 12.68 97.59 12.61 97.59 12.40C97.59 12.24 97.59 12.18 97.43 12.18L96.35 12.18C96.35 12.18 96.33 12.18 96.33 12.17C96.35 11.87 97.12 9.90 97.47 9.02C97.54 8.83 97.55 8.79 97.76 8.79L100.59 8.79C100.73 8.79 100.73 8.81 100.80 9.03C101.07 9.77 101.78 11.89 101.78 12.17C101.78 12.18 101.77 12.18 101.77 12.18L101.00 12.18C100.77 12.18 100.76 12.19 100.76 12.39C100.76 12.63 100.77 12.68 100.94 12.68C101.26 12.68 102.13 12.64 102.55 12.64C102.97 12.64 103.64 12.68 103.85 12.68C103.99 12.68 104.01 12.61 104.01 12.40C104.01 12.24 103.99 12.18 103.85 12.18L103.36 12.18C103.26 12.18 102.24 9.34 101.68 7.78L100.00 3.07C99.99 3.00 99.92 2.94 99.83 2.94C99.71 2.94 99.61 3.16 99.53 3.35C99.37 3.71 99.13 3.84 99.02 4.13L97.54 7.57C97.36 8.01 95.65 12.18 95.52 12.18L95.10 12.18C94.88 12.18 94.85 12.19 94.85 12.39ZM97.75 8.33C97.75 8.30 97.78 8.23 97.82 8.13L99.19 4.77C99.23 4.66 99.26 4.61 99.29 4.61C99.30 4.61 99.32 4.63 99.36 4.77L100.52 8.18C100.55 8.25 100.56 8.29 100.56 8.32C100.56 8.36 100.53 8.37 100.44 8.37L97.93 8.37C97.75 8.37 97.75 8.34 97.75 8.33ZM110.08 3.51C110.08 3.75 110.18 3.77 110.35 3.77L110.78 3.77C110.87 3.77 113.65 10.99 113.69 11.07C114.18 12.18 114.28 12.99 114.49 12.99C114.76 12.99 114.81 12.67 115.09 12.26C115.25 12.04 115.33 12.01 115.49 11.66L118.72 4.06C118.83 3.81 118.82 3.77 119.18 3.77C119.41 3.77 119.48 3.75 119.48 3.56C119.48 3.32 119.43 3.26 119.24 3.26C119.10 3.26 118.57 3.30 118.15 3.30C117.73 3.30 116.90 3.26 116.68 3.26C116.48 3.26 116.42 3.29 116.42 3.51C116.42 3.75 116.55 3.77 116.72 3.77L117.71 3.77C117.78 3.77 117.80 3.81 117.80 3.95C117.80 4.63 116.12 8.72 115.39 10.63C115.25 10.99 115.16 11.17 115.12 11.17C115.08 11.17 114.98 10.98 114.84 10.60C114.27 9.10 113.13 6.01 112.62 4.49C112.53 4.27 112.45 3.93 112.45 3.79L112.45 3.77L113.43 3.77C113.65 3.77 113.72 3.75 113.72 3.56C113.72 3.32 113.68 3.26 113.48 3.26C113.16 3.26 112.08 3.30 111.66 3.30C111.24 3.30 110.53 3.26 110.35 3.26C110.17 3.26 110.08 3.28 110.08 3.51ZM127.09 12.39C127.09 12.63 127.12 12.68 127.32 12.68C127.64 12.68 128.60 12.64 129.02 12.64C129.44 12.64 133.95 12.68 134.27 12.68C134.40 12.68 134.55 12.66 134.55 12.49C134.55 12.07 134.60 11.23 134.60 10.53C134.60 10.39 134.44 10.39 134.32 10.39C134.20 10.39 134.08 10.39 134.08 10.51C134.06 11.06 134.06 11.41 134.04 11.76C134.01 12.01 134.01 12.04 133.91 12.04C133.76 12.04 131.12 12.08 129.63 12.08C129.56 12.08 129.51 10.11 129.47 8.26C129.47 8.06 129.51 8.09 129.65 8.09L131.94 8.09C132.64 8.09 132.66 8.20 132.66 8.30L132.66 9.00C132.66 9.14 132.85 9.14 132.96 9.14C133.06 9.14 133.18 9.13 133.18 9.02C133.18 8.83 133.15 8.33 133.15 7.83C133.15 7.32 133.18 6.83 133.18 6.71C133.18 6.59 133.04 6.58 132.94 6.58C132.83 6.58 132.66 6.59 132.66 6.72L132.66 7.45C132.66 7.62 132.22 7.63 131.94 7.63L129.60 7.63C129.49 7.63 129.47 7.63 129.47 7.45C129.46 6.75 129.44 6.06 129.44 5.46C129.44 5.12 129.44 3.71 129.53 3.71C130.76 3.71 133.27 3.75 133.27 3.81C133.27 3.99 133.22 4.83 133.22 4.89C133.22 5.04 133.29 5.10 133.48 5.10C133.67 5.10 133.74 5.08 133.74 4.94C133.74 3.85 133.80 3.36 133.80 3.09C133.80 2.91 133.71 2.90 133.52 2.90C133.32 2.90 133.32 2.95 133.29 3.11C133.28 3.25 133.35 3.25 132.44 3.25C131.82 3.25 129.68 3.29 128.91 3.29C128.42 3.29 127.48 3.25 127.39 3.25C127.26 3.25 127.20 3.30 127.20 3.49C127.20 3.72 127.27 3.74 127.44 3.74L128.10 3.74C128.16 3.74 128.23 4.79 128.23 5.71C128.23 5.80 128.28 8.27 128.28 9.83L128.28 11.17C128.28 11.84 128.25 12.18 128.23 12.18L127.37 12.18C127.15 12.18 127.09 12.21 127.09 12.39ZM142.56 14.55C142.56 14.64 142.63 14.83 142.76 14.83C142.93 14.83 144.37 13.45 144.37 12.25C144.37 11.86 143.58 11.33 143.33 11.33C143.23 11.33 142.62 11.66 142.62 11.93C142.62 12.21 143.54 12.45 143.54 13.08C143.54 13.78 142.56 14.42 142.56 14.55ZM162.41 5.77C162.41 9.07 167.40 8.20 167.40 10.65C167.40 11.59 166.56 12.31 165.58 12.31C164.75 12.31 163.16 11.83 163.13 11.47L163.04 10.15C163.03 9.97 162.96 9.91 162.78 9.91L162.71 9.91C162.50 9.91 162.50 10.00 162.50 10.12C162.50 10.32 162.61 11.66 162.64 12.17C162.65 12.38 163.91 12.85 165.45 12.85C167.02 12.85 168.63 11.87 168.63 10.11C168.63 6.79 163.66 7.87 163.66 5.32C163.66 4.31 164.44 3.56 165.48 3.56C166.50 3.56 167.59 4.58 167.59 4.89C167.59 5.01 167.55 5.73 167.55 5.78C167.55 5.92 167.59 5.99 167.86 5.99C168.10 5.99 168.11 5.94 168.11 5.75C168.11 5.04 168.20 3.68 168.20 3.53C168.20 3.30 168.15 3.29 167.89 3.29C167.66 3.29 167.65 3.32 167.64 3.53C167.64 3.61 167.62 3.78 167.58 3.78C167.52 3.78 167.44 3.74 167.37 3.68C166.57 3.14 165.96 3.08 165.45 3.08C163.93 3.08 162.41 4.17 162.41 5.77ZM176.53 12.39C176.53 12.63 176.55 12.68 176.75 12.68C176.99 12.68 177.49 12.64 177.91 12.64C178.33 12.64 178.82 12.68 179.14 12.68C179.31 12.68 179.34 12.61 179.34 12.40C179.34 12.24 179.31 12.18 179.14 12.18L178.18 12.18C178.12 12.18 178.11 11.54 178.11 10.79C178.11 8.96 178.15 6.13 178.22 4.28C178.25 3.88 178.28 3.91 178.42 4.27L181.68 12.32C181.78 12.54 181.85 12.74 181.96 12.74C182.06 12.74 182.13 12.63 182.21 12.45C182.55 11.79 182.73 11.75 182.99 11.09L185.58 4.47C185.71 4.16 185.75 4.02 185.77 4.47C185.79 5.66 185.84 8.47 185.84 9.74C185.84 10.99 185.79 12.18 185.74 12.18L185.11 12.18C184.88 12.18 184.81 12.19 184.81 12.39C184.81 12.63 184.84 12.68 185.04 12.68C185.23 12.68 185.93 12.64 186.54 12.64C186.96 12.64 187.71 12.68 188.03 12.68C188.20 12.68 188.23 12.61 188.23 12.40C188.23 12.22 188.17 12.18 188.01 12.18L187.28 12.18C187.17 12.18 187.07 8.44 187.07 6.03L187.07 4.77C187.07 4.17 187.10 3.77 187.14 3.70L187.80 3.70C188.02 3.70 188.06 3.68 188.06 3.49C188.06 3.25 188.05 3.19 187.85 3.19C187.53 3.19 186.84 3.23 186.42 3.23L185.75 3.23C185.53 3.23 185.50 3.29 185.39 3.58L182.64 10.72C182.56 10.95 182.53 11.02 182.42 10.74L179.48 3.40C179.41 3.22 179.35 3.19 179.21 3.19C179.13 3.19 178.64 3.23 178.33 3.23C177.83 3.23 176.97 3.19 176.78 3.19C176.64 3.19 176.64 3.26 176.64 3.47C176.64 3.64 176.64 3.70 176.78 3.70L177.48 3.70C177.74 3.70 177.74 3.72 177.74 3.84C177.74 4.82 177.53 9.94 177.49 10.79C177.45 11.55 177.45 12.18 177.39 12.18L176.82 12.18C176.60 12.18 176.53 12.19 176.53 12.39ZM195.99 12.39C195.99 12.63 196.03 12.68 196.22 12.68C196.55 12.68 197.30 12.64 198.02 12.64C198.67 12.64 199.47 12.68 199.70 12.68C199.86 12.68 199.89 12.61 199.89 12.40C199.89 12.24 199.86 12.18 199.70 12.18L198.73 12.18C198.63 12.18 198.60 9.55 198.60 7.76L198.60 5.87C198.60 5.14 198.63 3.70 198.73 3.70L199.64 3.70C199.86 3.70 199.89 3.68 199.89 3.49C199.89 3.25 199.86 3.19 199.70 3.19C199.37 3.19 198.70 3.23 198.04 3.23C197.23 3.23 196.52 3.19 196.29 3.19C196.11 3.19 196.04 3.21 196.04 3.44C196.04 3.68 196.13 3.70 196.29 3.70L197.22 3.70C197.26 3.70 197.33 4.79 197.33 5.71L197.33 7.08C197.33 8.92 197.32 12.18 197.20 12.18L196.28 12.18C196.06 12.18 195.99 12.19 195.99 12.39ZM207.79 12.39C207.79 12.63 207.82 12.68 208.01 12.68C208.33 12.68 209.30 12.64 209.72 12.64C210.14 12.64 214.49 12.68 214.82 12.68C215.08 12.68 215.15 12.66 215.17 12.49C215.22 12.08 215.46 10.72 215.46 10.60C215.46 10.47 215.31 10.44 215.14 10.43C215.04 10.42 214.96 10.46 214.94 10.56L214.77 11.76C214.73 12.05 214.72 12.03 214.49 12.04C214.34 12.05 211.83 12.12 210.41 12.12C210.36 12.12 210.32 11.38 210.32 10.54L210.32 6.66C210.32 5.40 210.34 3.70 210.43 3.70L211.41 3.70C211.65 3.70 211.68 3.63 211.68 3.44C211.68 3.23 211.67 3.19 211.43 3.19C211.11 3.19 210.17 3.23 209.75 3.23C209.33 3.23 208.39 3.19 208.17 3.19C207.94 3.19 207.89 3.22 207.89 3.44C207.89 3.65 207.93 3.70 208.12 3.70L208.95 3.70C208.99 3.70 209.02 4.23 209.02 4.90L209.02 8.13C209.02 10.07 208.99 12.18 208.91 12.18L208.07 12.18C207.84 12.18 207.79 12.21 207.79 12.39ZM223.08 12.39C223.08 12.63 223.10 12.68 223.30 12.68C223.62 12.68 224.59 12.64 225.01 12.64C225.43 12.64 229.94 12.68 230.26 12.68C230.38 12.68 230.54 12.66 230.54 12.49C230.54 12.07 230.58 11.23 230.58 10.53C230.58 10.39 230.43 10.39 230.30 10.39C230.19 10.39 230.06 10.39 230.06 10.51C230.05 11.06 230.05 11.41 230.02 11.76C229.99 12.01 229.99 12.04 229.89 12.04C229.74 12.04 227.11 12.08 225.61 12.08C225.54 12.08 225.50 10.11 225.46 8.26C225.46 8.06 225.50 8.09 225.64 8.09L227.92 8.09C228.62 8.09 228.65 8.20 228.65 8.30L228.65 9.00C228.65 9.14 228.83 9.14 228.94 9.14C229.04 9.14 229.17 9.13 229.17 9.02C229.17 8.83 229.14 8.33 229.14 7.83C229.14 7.32 229.17 6.83 229.17 6.71C229.17 6.59 229.03 6.58 228.93 6.58C228.82 6.58 228.65 6.59 228.65 6.72L228.65 7.45C228.65 7.62 228.20 7.63 227.92 7.63L225.58 7.63C225.47 7.63 225.46 7.63 225.46 7.45C225.44 6.75 225.43 6.06 225.43 5.46C225.43 5.12 225.43 3.71 225.51 3.71C226.74 3.71 229.25 3.75 229.25 3.81C229.25 3.99 229.21 4.83 229.21 4.89C229.21 5.04 229.28 5.10 229.46 5.10C229.66 5.10 229.73 5.08 229.73 4.94C229.73 3.85 229.78 3.36 229.78 3.09C229.78 2.91 229.70 2.90 229.50 2.90C229.31 2.90 229.31 2.95 229.28 3.11C229.26 3.25 229.33 3.25 228.42 3.25C227.81 3.25 225.67 3.29 224.90 3.29C224.41 3.29 223.47 3.25 223.37 3.25C223.24 3.25 223.19 3.30 223.19 3.49C223.19 3.72 223.26 3.74 223.43 3.74L224.08 3.74C224.14 3.74 224.21 4.79 224.21 5.71C224.21 5.80 224.27 8.27 224.27 9.83L224.27 11.17C224.27 11.84 224.24 12.18 224.21 12.18L223.36 12.18C223.13 12.18 223.08 12.21 223.08 12.39Z"></path></g></svg>